<svg viewBox="0 0 1400 1000" xmlns="http://www.w3.org/2000/svg">
  <defs>
    <linearGradient id="quantumGrad" x1="0%" y1="0%" x2="100%" y2="100%">
      <stop offset="0%" style="stop-color:#0D9488;stop-opacity:1" />
      <stop offset="100%" style="stop-color:#10B981;stop-opacity:1" />
    </linearGradient>
    <filter id="glow">
      <feGaussianBlur stdDeviation="3" result="coloredBlur"/>
      <feMerge>
        <feMergeNode in="coloredBlur"/>
        <feMergeNode in="SourceGraphic"/>
      </feMerge>
    </filter>
    <marker id="arrowhead" markerWidth="10" markerHeight="7" refX="9" refY="3.5" orient="auto">
      <polygon points="0 0, 10 3.5, 0 7" fill="#0D9488"/>
    </marker>
  </defs>
  <rect width="1400" height="1000" fill="#0a0a0a"/>
  <text x="700" y="40" text-anchor="middle" fill="#0D9488" font-size="28" font-weight="bold">AMPEL360E Digital Twin RT - Quantum Integration Architecture</text>
  <g transform="translate(50,80)">
    <rect x="0" y="0" width="300" height="200" fill="none" stroke="#0D9488" stroke-width="2" rx="10"/>
    <text x="150" y="30" text-anchor="middle" fill="#fff" font-size="18" font-weight="bold">Physical Aircraft</text>
    <rect x="20" y="50" width="120" height="40" fill="#1a1a2e" stroke="#0D9488" rx="5"/>
    <text x="80" y="75" text-anchor="middle" fill="#fff" font-size="14">QSM Network</text>
    <rect x="160" y="50" width="120" height="40" fill="#1a1a2e" stroke="#0D9488" rx="5"/>
    <text x="220" y="75" text-anchor="middle" fill="#fff" font-size="14">QNS System</text>
    <rect x="90" y="110" width="120" height="40" fill="#1a1a2e" stroke="#0D9488" rx="5"/>
    <text x="150" y="135" text-anchor="middle" fill="#fff" font-size="14">QDS Module</text>
  </g>
  <g transform="translate(50,320)">
    <rect x="0" y="0" width="300" height="150" fill="none" stroke="#10B981" stroke-width="2" rx="10"/>
    <text x="150" y="30" text-anchor="middle" fill="#fff" font-size="18" font-weight="bold">Data Acquisition</text>
    <rect x="20" y="50" width="260" height="40" fill="#1a1a2e" stroke="#10B981" rx="5"/>
    <text x="150" y="75" text-anchor="middle" fill="#fff" font-size="14">Quantum State Readers</text>
    <rect x="20" y="100" width="260" height="40" fill="#1a1a2e" stroke="#10B981" rx="5"/>
    <text x="150" y="125" text-anchor="middle" fill="#fff" font-size="14">Signal Processors</text>
  </g>
  <g transform="translate(400,80)">
    <rect x="0" y="0" width="300" height="390" fill="none" stroke="#F59E0B" stroke-width="2" rx="10"/>
    <text x="150" y="30" text-anchor="middle" fill="#fff" font-size="18" font-weight="bold">Quantum Data Pipeline</text>
    <rect x="20" y="50" width="260" height="60" fill="#1a1a2e" stroke="#F59E0B" rx="5"/>
    <text x="150" y="75" text-anchor="middle" fill="#fff" font-size="14">Apache Kafka</text>
    <text x="150" y="95" text-anchor="middle" fill="#999" font-size="12">High-throughput streaming</text>
    <rect x="20" y="130" width="260" height="60" fill="#1a1a2e" stroke="#F59E0B" rx="5"/>
    <text x="150" y="155" text-anchor="middle" fill="#fff" font-size="14">Redis Cache</text>
    <text x="150" y="175" text-anchor="middle" fill="#999" font-size="12">State management</text>
    <rect x="20" y="210" width="260" height="60" fill="#1a1a2e" stroke="#F59E0B" rx="5"/>
    <text x="150" y="235" text-anchor="middle" fill="#fff" font-size="14">ML Anomaly Detection</text>
    <text x="150" y="255" text-anchor="middle" fill="#999" font-size="12">TensorFlow.js models</text>
    <rect x="20" y="290" width="260" height="60" fill="#1a1a2e" stroke="#F59E0B" rx="5"/>
    <text x="150" y="315" text-anchor="middle" fill="#fff" font-size="14">WebSocket Gateway</text>
    <text x="150" y="335" text-anchor="middle" fill="#999" font-size="12">Real-time distribution</text>
  </g>
  <g transform="translate(750,80)">
    <rect x="0" y="0" width="300" height="390" fill="none" stroke="#0D9488" stroke-width="2" rx="10"/>
    <text x="150" y="30" text-anchor="middle" fill="#fff" font-size="18" font-weight="bold">Digital Twin Core</text>
    <rect x="20" y="50" width="260" height="80" fill="#1a1a2e" stroke="#0D9488" rx="5"/>
    <text x="150" y="75" text-anchor="middle" fill="#fff" font-size="14">OCC.js CAD Engine</text>
    <text x="150" y="95" text-anchor="middle" fill="#999" font-size="12">NURBS geometry</text>
    <text x="150" y="115" text-anchor="middle" fill="#999" font-size="12">Real-time deformation</text>
    <rect x="20" y="150" width="260" height="80" fill="#1a1a2e" stroke="#0D9488" rx="5"/>
    <text x="150" y="175" text-anchor="middle" fill="#fff" font-size="14">RT STEP Generator</text>
    <text x="150" y="195" text-anchor="middle" fill="#999" font-size="12">Dynamic geometry update</text>
    <text x="150" y="215" text-anchor="middle" fill="#999" font-size="12">Stress reinforcement</text>
    <rect x="20" y="250" width="260" height="60" fill="#1a1a2e" stroke="#0D9488" rx="5"/>
    <text x="150" y="275" text-anchor="middle" fill="#fff" font-size="14">State Synchronization</text>
    <text x="150" y="295" text-anchor="middle" fill="#999" font-size="12">Digital-Physical sync</text>
  </g>
  <g transform="translate(1100,80)">
    <rect x="0" y="0" width="250" height="390" fill="none" stroke="#10B981" stroke-width="2" rx="10"/>
    <text x="125" y="30" text-anchor="middle" fill="#fff" font-size="18" font-weight="bold">Visualization</text>
    <rect x="20" y="50" width="210" height="60" fill="#1a1a2e" stroke="#10B981" rx="5"/>
    <text x="125" y="75" text-anchor="middle" fill="#fff" font-size="14">Three.js 3D Viewer</text>
    <text x="125" y="95" text-anchor="middle" fill="#999" font-size="12">Real-time rendering</text>
    <rect x="20" y="130" width="210" height="60" fill="#1a1a2e" stroke="#10B981" rx="5"/>
    <text x="125" y="155" text-anchor="middle" fill="#fff" font-size="14">Quantum Dashboard</text>
    <text x="125" y="175" text-anchor="middle" fill="#999" font-size="12">Metrics &amp; alerts</text>
    <rect x="20" y="210" width="210" height="60" fill="#1a1a2e" stroke="#10B981" rx="5"/>
    <text x="125" y="235" text-anchor="middle" fill="#fff" font-size="14">Stress Heat Maps</text>
    <text x="125" y="255" text-anchor="middle" fill="#999" font-size="12">Thermal visualization</text>
    <rect x="20" y="290" width="210" height="60" fill="#1a1a2e" stroke="#10B981" rx="5"/>
    <text x="125" y="315" text-anchor="middle" fill="#fff" font-size="14">Parameter Controls</text>
    <text x="125" y="335" text-anchor="middle" fill="#999" font-size="12">Manual adjustments</text>
  </g>
  <g transform="translate(400,520)">
    <rect x="0" y="0" width="650" height="120" fill="none" stroke="#EF4444" stroke-width="2" rx="10"/>
    <text x="325" y="30" text-anchor="middle" fill="#fff" font-size="18" font-weight="bold">Outputs &amp; Integration</text>
    <rect x="20" y="50" width="150" height="50" fill="#1a1a2e" stroke="#EF4444" rx="5"/>
    <text x="95" y="80" text-anchor="middle" fill="#fff" font-size="14">STEP Files</text>
    <rect x="190" y="50" width="150" height="50" fill="#1a1a2e" stroke="#EF4444" rx="5"/>
    <text x="265" y="80" text-anchor="middle" fill="#fff" font-size="14">Flight Data</text>
    <rect x="360" y="50" width="150" height="50" fill="#1a1a2e" stroke="#EF4444" rx="5"/>
    <text x="435" y="80" text-anchor="middle" fill="#fff" font-size="14">Maintenance</text>
    <rect x="530" y="50" width="100" height="50" fill="#1a1a2e" stroke="#EF4444" rx="5"/>
    <text x="580" y="80" text-anchor="middle" fill="#fff" font-size="14">Alerts</text>
  </g>
  <g transform="translate(50,520)">
    <rect x="0" y="0" width="300" height="120" fill="none" stroke="#9333EA" stroke-width="2" rx="10"/>
    <text x="150" y="30" text-anchor="middle" fill="#fff" font-size="18" font-weight="bold">Cloud Services</text>
    <rect x="20" y="50" width="120" height="50" fill="#1a1a2e" stroke="#9333EA" rx="5"/>
    <text x="80" y="80" text-anchor="middle" fill="#fff" font-size="14">QPU Access</text>
    <rect x="160" y="50" width="120" height="50" fill="#1a1a2e" stroke="#9333EA" rx="5"/>
    <text x="220" y="80" text-anchor="middle" fill="#fff" font-size="14">Data Lake</text>
  </g>
  <path d="M 200 280 L 200 320" stroke="#0D9488" stroke-width="2" marker-end="url(#arrowhead)" fill="none"/>
  <path d="M 350 395 L 400 395" stroke="#10B981" stroke-width="2" marker-end="url(#arrowhead)" fill="none"/>
  <path d="M 700 270 L 750 270" stroke="#F59E0B" stroke-width="2" marker-end="url(#arrowhead)" fill="none"/>
  <path d="M 1050 270 L 1100 270" stroke="#0D9488" stroke-width="2" marker-end="url(#arrowhead)" fill="none"/>
  <path d="M 900 470 L 725 520" stroke="#0D9488" stroke-width="2" marker-end="url(#arrowhead)" fill="none"/>
  <path d="M 200 520 L 550 470" stroke="#9333EA" stroke-width="2" marker-end="url(#arrowhead)" fill="none" stroke-dasharray="5,5"/>
  <g transform="translate(50,680)">
    <text x="0" y="20" fill="#0D9488" font-size="16" font-weight="bold">Key Features:</text>
    <circle cx="20" cy="50" r="5" fill="#0D9488" filter="url(#glow)"/>
    <text x="35" y="55" fill="#fff" font-size="14">Real-time quantum sensor integration</text>
    <circle cx="20" cy="80" r="5" fill="#10B981" filter="url(#glow)"/>
    <text x="35" y="85" fill="#fff" font-size="14">Dynamic geometry deformation based on stress/thermal data</text>
    <circle cx="20" cy="110" r="5" fill="#F59E0B" filter="url(#glow)"/>
    <text x="35" y="115" fill="#fff" font-size="14">ML-powered anomaly detection and prediction</text>
    <circle cx="20" cy="140" r="5" fill="#EF4444" filter="url(#glow)"/>
    <text x="35" y="145" fill="#fff" font-size="14">Automated STEP generation with real-time modifications</text>
  </g>
  <g transform="translate(700,680)">
    <text x="0" y="20" fill="#0D9488" font-size="16" font-weight="bold">Performance Metrics:</text>
    <text x="0" y="50" fill="#fff" font-size="14">&#8226; Sensor update rate: 1000 Hz</text>
    <text x="0" y="80" fill="#fff" font-size="14">&#8226; Geometry update latency: &#60;100ms</text>
    <text x="0" y="110" fill="#fff" font-size="14">&#8226; Quantum coherence: &#62;0.9</text>
    <text x="0" y="140" fill="#fff" font-size="14">&#8226; Position accuracy: &#177;0.1m</text>
  </g>
  <g transform="translate(1200,900)">
    <circle cx="0" cy="0" r="30" fill="none" stroke="url(#quantumGrad)" stroke-width="2" opacity="0.5"/>
    <circle cx="0" cy="0" r="20" fill="none" stroke="url(#quantumGrad)" stroke-width="1" opacity="0.7"/>
    <circle cx="0" cy="0" r="10" fill="url(#quantumGrad)"/>
    <text x="0" y="50" text-anchor="middle" fill="#0D9488" font-size="12">GAIA-QAO</text>
  </g>
</svg>
